<?xml version="1.0" standalone="no"?>
<!DOCTYPE svg PUBLIC "-//W3C//DTD SVG 20010904//EN"
 "http://www.w3.org/TR/2001/REC-SVG-20010904/DTD/svg10.dtd">
<svg version="1.0" xmlns="http://www.w3.org/2000/svg"
 width="428.000000pt" height="259.000000pt" viewBox="0 0 428.000000 259.000000"
 preserveAspectRatio="xMidYMid meet">

<g transform="translate(0.000000,259.000000) scale(0.100000,-0.100000)"
fill="#000000" stroke="none">
<path d="M640 1465 c-26 -32 13 -81 48 -59 34 22 22 74 -18 74 -10 0 -23 -7
-30 -15z"/>
<path d="M760 1450 c0 -5 6 -10 14 -10 8 0 31 -19 50 -42 32 -36 36 -48 36
-95 0 -40 4 -53 15 -53 11 0 15 11 15 35 l0 36 31 -36 c21 -24 35 -33 42 -26
7 7 -17 42 -69 105 -64 76 -84 95 -106 95 -16 1 -28 -3 -28 -9z"/>
<path d="M1460 1295 l0 -115 30 0 30 0 0 115 0 115 -30 0 -30 0 0 -115z"/>
<path d="M1600 1295 l0 -115 25 0 c24 0 25 2 25 78 l1 77 40 -77 c39 -78 39
-78 79 -78 l40 0 0 116 0 115 -27 -3 c-27 -3 -28 -6 -33 -68 l-5 -65 -35 67
c-34 66 -36 68 -72 68 l-38 0 0 -115z"/>
<path d="M1903 1395 c-33 -23 -31 -77 3 -104 14 -11 35 -23 45 -26 11 -4 18
-12 16 -18 -4 -12 -34 -14 -71 -6 -13 3 -20 -2 -22 -18 -10 -59 137 -56 152 3
11 44 0 68 -43 92 -55 30 -56 47 -4 38 34 -5 41 -3 46 15 9 27 4 31 -52 36
-34 3 -55 0 -70 -12z"/>
<path d="M2080 1385 c0 -20 5 -25 25 -25 24 0 24 -2 27 -87 l3 -88 30 0 30 0
3 88 c3 85 3 87 27 87 20 0 25 5 25 25 0 25 -1 25 -85 25 -84 0 -85 0 -85 -25z"/>
<path d="M2335 1398 c-24 -63 -65 -195 -65 -206 0 -9 10 -12 33 -10 24 2 33 8
35 26 3 18 10 22 38 22 28 0 36 -5 44 -25 7 -19 17 -25 40 -25 16 0 30 3 30 7
0 5 -16 56 -36 115 l-36 108 -39 0 c-23 0 -42 -5 -44 -12z m59 -90 c5 -24 3
-28 -15 -28 -17 0 -20 4 -15 23 3 12 6 29 6 37 0 21 16 0 24 -32z"/>
<path d="M2544 1397 c-2 -7 -3 -58 -2 -113 l3 -99 28 -3 27 -3 1 68 1 68 20
-67 c19 -63 23 -68 49 -68 25 0 29 5 44 58 9 31 18 62 20 67 2 6 4 -20 4 -57
l1 -68 30 0 30 0 0 116 0 115 -42 -3 -42 -3 -22 -75 -22 -75 -23 78 -23 77
-38 0 c-23 0 -41 -5 -44 -13z"/>
<path d="M2880 1295 l0 -115 65 0 c63 0 65 1 65 25 0 22 -4 25 -35 25 -28 0
-35 4 -35 20 0 16 7 20 30 20 25 0 30 4 30 25 0 21 -5 25 -30 25 -23 0 -30 4
-30 20 0 16 7 20 35 20 31 0 35 3 35 25 0 24 -2 25 -65 25 l-65 0 0 -115z"/>
<path d="M3121 1396 c-49 -27 -66 -107 -36 -166 18 -35 43 -50 82 -50 53 0 73
11 73 37 0 23 -2 24 -39 18 -35 -6 -41 -4 -56 19 -18 28 -13 77 9 96 8 6 29 9
47 8 26 -2 34 1 37 16 2 10 -2 22 -10 27 -20 13 -80 10 -107 -5z"/>
<path d="M3310 1295 l0 -115 30 0 c29 0 30 2 30 45 0 45 0 45 35 45 35 0 35 0
35 -45 0 -43 1 -45 30 -45 l30 0 0 115 0 115 -30 0 c-28 0 -30 -2 -30 -40 0
-39 -1 -40 -35 -40 -34 0 -35 1 -35 40 0 38 -2 40 -30 40 l-30 0 0 -115z"/>
<path d="M545 1332 l-45 -67 0 -152 0 -153 25 0 c28 0 32 14 38 157 4 72 9 98
25 120 19 27 23 28 92 24 65 -3 72 -1 68 16 -2 12 -14 19 -38 21 -43 4 -56 15
-63 50 -4 17 -16 33 -31 40 -25 11 -28 9 -71 -56z"/>
<path d="M1140 1383 c-8 -4 -44 -33 -80 -66 -36 -32 -76 -65 -90 -72 -14 -7
-68 -15 -120 -17 -53 -3 -105 -10 -117 -16 -22 -12 -43 -60 -43 -98 0 -22 4
-24 44 -24 37 0 50 6 79 35 29 29 42 35 77 35 35 0 48 -6 77 -35 l35 -35 129
0 129 0 0 70 0 70 -36 0 -35 0 3 53 c3 51 4 52 36 55 26 3 32 7 32 28 0 22 -3
24 -52 23 -29 0 -60 -3 -68 -6z m20 -108 l0 -45 -46 0 -47 0 39 44 c22 24 42
45 47 45 4 1 7 -19 7 -44z m70 -85 c0 -5 -9 -10 -20 -10 -11 0 -20 5 -20 10 0
6 9 10 20 10 11 0 20 -4 20 -10z"/>
<path d="M826 1109 c-35 -41 -34 -83 3 -120 37 -37 79 -38 120 -3 25 20 31 34
31 63 0 86 -100 125 -154 60z m92 -31 c28 -28 1 -75 -37 -63 -27 8 -32 29 -15
54 17 24 34 27 52 9z"/>
<path d="M2372 1073 c-11 -21 -4 -83 9 -83 8 0 13 30 12 68 -1 6 9 12 21 13
20 0 20 1 1 9 -29 13 -33 12 -43 -7z"/>
<path d="M2110 1035 c0 -25 5 -45 10 -45 7 0 10 19 9 45 -2 25 -6 45 -11 45
-4 0 -8 -20 -8 -45z"/>
<path d="M3000 1035 c0 -25 5 -45 10 -45 6 0 10 20 10 45 0 25 -4 45 -10 45
-5 0 -10 -20 -10 -45z"/>
<path d="M3100 1050 c0 -16 5 -30 10 -30 6 0 10 14 10 30 0 17 -4 30 -10 30
-5 0 -10 -13 -10 -30z"/>
<path d="M692 1061 c-8 -5 -12 -17 -10 -27 2 -15 14 -20 51 -22 46 -3 47 -3
47 27 0 29 -2 31 -37 31 -21 0 -44 -4 -51 -9z"/>
<path d="M1007 1063 c-4 -3 -7 -17 -7 -30 0 -23 0 -23 130 -23 l130 0 0 30 0
30 -123 0 c-68 0 -127 -3 -130 -7z"/>
<path d="M2049 1063 c-10 -2 -20 -14 -23 -26 l-7 -22 -10 24 c-14 36 -23 17
-10 -21 10 -28 9 -35 -6 -45 -16 -12 -15 -13 3 -13 15 0 26 14 41 48 21 47 21
47 22 15 1 -27 5 -33 24 -32 12 0 16 3 10 6 -16 6 -17 39 -2 49 8 4 7 9 -2 15
-8 5 -16 8 -19 8 -3 -1 -12 -3 -21 -6z"/>
<path d="M2754 1056 c-11 -28 1 -61 21 -63 11 -2 14 0 8 3 -15 7 -17 44 -3 44
16 0 12 17 -5 24 -9 3 -18 -1 -21 -8z"/>
<path d="M2954 1056 c-11 -28 1 -61 21 -63 11 -2 14 0 8 3 -15 7 -17 44 -3 44
16 0 12 17 -5 24 -9 3 -18 -1 -21 -8z"/>
<path d="M1850 1051 c0 -6 8 -11 18 -12 13 0 12 -2 -5 -9 -35 -14 -29 -40 8
-40 28 0 30 2 27 33 -2 24 -8 33 -25 35 -13 2 -23 -1 -23 -7z m30 -41 c0 -5
-4 -10 -10 -10 -5 0 -10 5 -10 10 0 6 5 10 10 10 6 0 10 -4 10 -10z"/>
<path d="M1910 1025 c0 -19 5 -35 10 -35 6 0 10 11 10 25 0 16 6 25 15 25 9 0
15 -9 15 -25 0 -14 5 -25 10 -25 6 0 10 9 10 19 0 37 -12 51 -41 51 -26 0 -29
-3 -29 -35z"/>
<path d="M2140 1024 c0 -19 5 -34 10 -34 6 0 10 11 10 25 0 14 5 25 10 25 6 0
10 -9 10 -19 0 -28 18 -36 22 -9 5 32 28 35 28 4 0 -14 5 -26 10 -26 11 0 12
15 4 47 -5 18 -13 21 -55 21 l-49 1 0 -35z"/>
<path d="M2264 1046 c-12 -30 0 -51 31 -53 20 -1 23 0 8 4 -29 6 -30 23 -2 23
14 0 19 5 17 18 -4 22 -46 29 -54 8z"/>
<path d="M2410 1025 c0 -19 5 -35 10 -35 6 0 10 16 10 35 0 19 -4 35 -10 35
-5 0 -10 -16 -10 -35z"/>
<path d="M2440 1051 c0 -6 5 -13 10 -16 8 -5 7 -11 -1 -21 -16 -19 -4 -30 16
-14 10 8 15 9 15 1 0 -6 5 -11 10 -11 7 0 7 6 1 18 -7 13 -6 23 1 30 7 7 8 15
4 19 -4 4 -12 1 -17 -7 -8 -11 -12 -12 -16 -2 -6 14 -23 16 -23 3z"/>
<path d="M2580 1025 c0 -19 5 -35 10 -35 6 0 10 16 10 35 0 19 -4 35 -10 35
-5 0 -10 -16 -10 -35z"/>
<path d="M2610 1025 c0 -19 5 -35 10 -35 6 0 10 11 10 25 0 16 6 25 15 25 9 0
15 -9 15 -25 0 -14 5 -25 10 -25 11 0 12 15 4 48 -5 16 -14 22 -35 22 -26 0
-29 -3 -29 -35z"/>
<path d="M2693 1045 c-3 -9 3 -23 13 -31 17 -14 17 -15 2 -10 -10 3 -18 1 -18
-4 0 -6 11 -10 25 -10 28 0 35 27 10 36 -8 4 -15 10 -15 15 0 4 7 5 17 2 11
-4 14 -3 9 5 -10 17 -36 15 -43 -3z"/>
<path d="M2810 1051 c0 -5 8 -12 18 -14 13 -4 11 -5 -5 -6 -16 -1 -23 -7 -23
-21 0 -16 7 -20 30 -20 31 0 38 17 24 54 -6 17 -44 23 -44 7z m30 -35 c0 -3
-4 -8 -10 -11 -5 -3 -10 -1 -10 4 0 6 5 11 10 11 6 0 10 -2 10 -4z"/>
<path d="M2870 1025 c0 -19 5 -35 10 -35 6 0 10 11 10 25 0 16 6 25 15 25 9 0
15 -9 15 -25 0 -14 5 -25 10 -25 6 0 10 9 10 19 0 37 -12 51 -41 51 -26 0 -29
-3 -29 -35z"/>
<path d="M3030 1050 c0 -5 5 -20 11 -34 9 -20 9 -29 -1 -41 -10 -12 -10 -15 3
-15 13 0 47 65 47 90 0 19 -18 10 -24 -12 l-7 -23 -9 23 c-10 23 -20 29 -20
12z"/>
<path d="M1460 1020 c0 -7 57 -10 165 -10 92 1 165 6 165 11 0 5 -72 9 -165 9
-107 0 -165 -4 -165 -10z"/>
<path d="M3170 1020 c0 -5 65 -9 165 -9 91 1 165 5 165 10 0 5 -74 9 -165 9
-99 0 -165 -4 -165 -10z"/>
<path d="M2510 989 c0 -11 5 -17 10 -14 6 3 10 13 10 21 0 8 -4 14 -10 14 -5
0 -10 -9 -10 -21z"/>
<path d="M3100 1000 c0 -5 5 -10 10 -10 6 0 10 5 10 10 0 6 -4 10 -10 10 -5 0
-10 -4 -10 -10z"/>
</g>
</svg>
